inDegrees=yes
name=IK-offline
DataType=double
version=3
OpenSimVersion=4.1
endheader
time	pelvis_tilt	pelvis_list	pelvis_rotation	pelvis_tx	pelvis_ty	pelvis_tz	hip_flexion_r	hip_adduction_r	hip_rotation_r	knee_angle_r	ankle_angle_r	subtalar_angle_r	mtp_angle_r	hip_flexion_l	hip_adduction_l	hip_rotation_l	knee_angle_l	ankle_angle_l	subtalar_angle_l	mtp_angle_l	lumbar_extension	lumbar_bending	lumbar_rotation	neck_flex	neck_latbend	neck_rot	arm_flex_r	arm_add_r	arm_rot_r	elbow_flex_r	pro_sup_r	wrist_flex_r	wrist_dev_r	arm_flex_l	arm_add_l	arm_rot_l	elbow_flex_l	pro_sup_l	wrist_flex_l	wrist_dev_l
73.371821	0.5660997102199767	-1.834812881054318	32.74603987669666	0	1	0	60.61139851976628	-7.279311908604582	-6.438625226650953	-56.62321664761932	-6.095242792565489	-6.787427944464105	0	61.95471149699049	-0.4166976985699668	0.7090509483665651	-61.24704571828585	-3.178653402293193	-4.20899805865466	0	-1.319642190416267	5.427538480779557	-2.001541957474883	-15.19301242198923	-5.035023000779102	2.235734590363088	35.38808190495927	7.270594158524552	30.58312936287797	52.76843987387122	48.72133021374763	-27.12201196384368	-24.99265850054267	19.21267993179511	0.4929253198669812	38.49235472614438	64.90096090105237	43.08125980705314	-23.3517071827158	-24.97964923955379
73.40182679999999	0.5832897849347775	-1.832763273867855	32.73904991100007	0	1	0	60.59572545109931	-7.258550522609355	-6.44747183069887	-56.63325129743112	-6.08265764091857	-6.80021761242349	0	61.93763212543475	-0.427534034545144	0.7171441681957174	-61.24670321148089	-3.176782810084941	-4.217387448285242	0	-1.297724245409911	5.367550009365551	-1.994219222390935	-15.19993839907339	-4.968203445616679	2.22445554444365	35.36197539520609	7.261783815794002	30.48205103878344	53.00359867632037	49.06531090379253	-27.6695589160142	-24.99316218403702	19.18198430614865	0.4664332419390301	38.5352126451078	64.88808649683619	43.10442758083448	-23.34681506080315	-24.97941515435214
73.42179299999999	0.5675816601633358	-1.851922749468429	32.75249901286345	0	1	0	60.60944904156801	-7.269240425784484	-6.477568610762823	-56.62758229563305	-6.082512788235938	-6.814192612048545	0	61.96553562068289	-0.4296501325357284	0.7347349585322391	-61.24978731045882	-3.179962637498599	-4.212355768440137	0	-1.249615911064919	5.301397574694252	-2.030103985517649	-15.21359250695426	-4.893088477897963	2.211422790532919	35.43413239822223	7.25274817797876	30.34738183521667	53.11263686193854	49.54060331153283	-28.08354004465444	-24.99345566243318	19.14591263231754	0.4131524971848494	38.54858509011873	64.89300272880483	43.12819274691244	-23.37046996484527	-24.97932708059743
73.4517587	0.5604454334312893	-1.870821956212427	32.75837804639296	0	1	0	60.62394779794487	-7.273463417183229	-6.491335096819662	-56.63186591747338	-6.080103734759717	-6.81308523385762	0	61.98769876631263	-0.4357157261263834	0.7556847980886722	-61.25554017566243	-3.179680041272351	-4.20151835103321	0	-1.26162424698258	5.230371601173766	-2.064737061742101	-15.19966346245696	-4.824869054964586	2.196940504465862	35.52910237441975	7.296460305229956	30.23109276286717	53.1533408631929	49.93237081431037	-28.4214683529971	-24.99363826956301	19.17762674565918	0.3202104347056214	38.57699109100088	64.9127022093558	43.09805963740112	-23.38431399140055	-24.97920144066503
73.4718668	0.5618668036539611	-1.88018525266542	32.7464010597548	0	1	0	60.63011876247499	-7.261719396770506	-6.490960050093357	-56.63674276835068	-6.077952597795099	-6.820772467496039	0	61.99470566844816	-0.4570251349129828	0.7590004082508701	-61.25854843645788	-3.178700226332829	-4.200021205044152	0	-1.332366088832512	5.189331591030709	-2.079730408258342	-15.12491985287609	-4.805525102580908	2.19729470430494	35.59784567017217	7.371801710506756	30.18210034482233	53.17455181004068	50.18787105221998	-28.68847637219622	-24.99375701530768	19.26935297701148	0.2445328738227538	38.58720771880886	64.93459452536236	43.05730065310675	-23.40183058776936	-24.97910566274387
73.5019198	0.5776551394339854	-1.88344989615305	32.73760282441395	0	1	0	60.61826734290091	-7.253185288697662	-6.490416250096219	-56.63237300401797	-6.081389380478946	-6.813020582948636	0	61.98509541143307	-0.4671811483689507	0.768811866997408	-61.25519485309205	-3.183222439270767	-4.204068675214285	0	-1.38965518135167	5.182580184531877	-2.119865104605194	-15.04215428044657	-4.831633950748688	2.249035541671362	35.6108538532959	7.434607206411986	30.22591491620987	53.20637986682762	50.32943650508895	-28.91022987200002	-24.9938338208044	19.34980834335949	0.2170420894670047	38.55033967430768	64.91661474919091	43.01224788230674	-23.4268054536139	-24.97928790500135
73.5218866	0.606438304734732	-1.876587642540335	32.72893476628391	0	1	0	60.59079319553214	-7.243931181568868	-6.490934876043006	-56.63094013781514	-6.087758649032919	-6.806302860800446	0	61.95763185861493	-0.4795257533792915	0.776554606527739	-61.24766024992611	-3.188822552703635	-4.200638050874025	0	-1.480084033456748	5.19279100050531	-2.139465876796356	-14.94258190630078	-4.867938358269099	2.3113841308047	35.66246295697223	7.430093508701174	30.2908595387001	53.24466424109183	50.47418231775813	-29.08162996617881	-24.99382858662072	19.4529858600415	0.2260300757635498	38.52643772740069	64.88178949576543	42.95856958736844	-23.43525364956631	-24.97952783995465
